<?xml version="1.0" encoding="UTF-8" standalone="no"?>
<!-- Generator: Adobe Illustrator 15.0.0, SVG Export Plug-In . SVG Version: 6.00 Build 0)  -->

<svg
   xmlns:dc="http://purl.org/dc/elements/1.1/"
   xmlns:cc="http://creativecommons.org/ns#"
   xmlns:rdf="http://www.w3.org/1999/02/22-rdf-syntax-ns#"
   xmlns:svg="http://www.w3.org/2000/svg"
   xmlns="http://www.w3.org/2000/svg"
   xmlns:xlink="http://www.w3.org/1999/xlink"
   xmlns:sodipodi="http://sodipodi.sourceforge.net/DTD/sodipodi-0.dtd"
   xmlns:inkscape="http://www.inkscape.org/namespaces/inkscape"
   version="1.1"
   id="Layer_1"
   x="0px"
   y="0px"
   width="313"
   height="319"
   viewBox="0 -262.239 379.802 386.55"
   enable-background="new 0 -262.239 379.802 386.55"
   xml:space="preserve"
   inkscape:version="0.91 r13725"
   sodipodi:docname="Bank_of_Israel_Symbol.svg"><metadata
     id="metadata235"><rdf:RDF><cc:Work
         rdf:about=""><dc:format>image/svg+xml</dc:format><dc:type
           rdf:resource="http://purl.org/dc/dcmitype/StillImage" /></cc:Work></rdf:RDF></metadata><defs
     id="defs233" /><sodipodi:namedview
     pagecolor="#ffffff"
     bordercolor="#666666"
     borderopacity="1"
     objecttolerance="10"
     gridtolerance="10"
     guidetolerance="10"
     inkscape:pageopacity="0"
     inkscape:pageshadow="2"
     inkscape:window-width="1858"
     inkscape:window-height="1053"
     id="namedview231"
     showgrid="false"
     inkscape:zoom="1.2210581"
     inkscape:cx="137.03681"
     inkscape:cy="248.93674"
     inkscape:window-x="-8"
     inkscape:window-y="-8"
     inkscape:window-maximized="1"
     inkscape:current-layer="Layer_1" /><path
     fill="none"
     stroke="#221E1F"
     stroke-width="3"
     stroke-miterlimit="2.613"
     d="M56.647-75.56h271.333 M57.935-87.145h268.434   M56.647-63.971h270.69 M57.935-52.396H326.05 M63.091-29.214h258.446 M67.27-17.625h249.764 M72.744-6.04h238.817 M79.18,5.551  h225.95 M88.833,17.133h206.962 M99.452,28.715h185.72 M113.294,40.309h158.037 M132.608,51.897h118.447 M168.013,63.486h48.603   M60.188-40.802h264.249"
     id="path3"
     style="fill:#0b3768;fill-opacity:1;stroke:#0b3768;stroke-opacity:1" /><g
     id="g5"
     style="fill:#0b3768;fill-opacity:1"><g
       id="g7"
       style="fill:#0b3768;fill-opacity:1"><defs
         id="defs9"><rect
           id="SVGID_1_"
           x="0"
           y="-262.239"
           width="379.802"
           height="386.547" /></defs><clipPath
         id="SVGID_2_"><use
           xlink:href="#SVGID_1_"
           overflow="visible"
           id="use13" /></clipPath><path
         clip-path="url(#SVGID_2_)"
         fill="#2FABE1"
         d="M36.69-51.749v-12.554H35.73c-0.328,3.553-0.647,5.156-7.082,5.156H10.623    v-0.316L36.69-80.063v-9.335H35.73c0,1.932-0.328,2.894-2.9,5.144H8.691c-5.794,0-6.76-0.968-7.079-5.144H0.65v12.554h0.962    c0.322-3.863,1.609-5.156,7.079-5.156h21.245v0.322L0-57.862v0.975h28.648c6.435,0,6.753,1.922,7.082,5.138H36.69z"
         id="path15"
         style="fill:#0b3768;fill-opacity:1" /></g><g
       id="g17"
       style="fill:#0b3768;fill-opacity:1"><defs
         id="defs19"><rect
           id="SVGID_3_"
           x="0"
           y="-262.239"
           width="379.802"
           height="386.547" /></defs><clipPath
         id="SVGID_4_"><use
           xlink:href="#SVGID_3_"
           overflow="visible"
           id="use23" /></clipPath><path
         clip-path="url(#SVGID_4_)"
         fill="#2FABE1"
         d="M41.199-27.604c0.644,2.575,0.644,3.859-0.644,4.188    c-1.931,0.319-3.547-0.969-17.057-10.301l10.947-2.575c3.86-0.965,4.503-0.322,5.791,3.86l0.966-0.319L37.656-47.88l-0.966,0.322    c0.65,3.55,0.322,4.832-3.538,5.791L9.979-36.614c-4.506,1.288-5.15,0.644-6.438-3.544l-0.963,0.319l3.538,15.135l0.966-0.322    c-0.966-4.191,0-5.15,3.544-5.785l9.979-2.265l1.288,0.972l-4.188,7.079c-1.285,2.256-5.791,8.369-7.403,8.691    c-0.966,0.322-1.288-0.322-1.932-3.219l-1.288,0.319l3.863,16.101l0.966-0.325c-0.644-2.9,0.965-5.156,3.854-9.657l10.628-15.457    l12.232,7.729c4.509,2.894,4.832,4.188,5.794,7.082h1.288l-3.547-14.169L41.199-27.604z"
         id="path25"
         style="fill:#0b3768;fill-opacity:1" /></g><g
       id="g27"
       style="fill:#0b3768;fill-opacity:1"><defs
         id="defs29"><rect
           id="SVGID_5_"
           x="0"
           y="-262.239"
           width="379.802"
           height="386.547" /></defs><clipPath
         id="SVGID_6_"><use
           xlink:href="#SVGID_5_"
           overflow="visible"
           id="use33" /></clipPath><path
         clip-path="url(#SVGID_6_)"
         fill="#2FABE1"
         d="M28.649,31.94c5.472,8.366,15.451,11.588,25.426,5.466    c10.623-6.76,11.266-17.698,6.435-25.102c-4.507-7.722-14.801-11.904-25.424-5.15C25.43,13.273,23.498,23.571,28.649,31.94     M30.252,30.974c-3.219-5.15-1.932-12.238,8.372-18.67C48.922,5.873,56,8.448,58.901,13.273c2.896,4.503,2.575,12.232-8.047,18.67    C40.559,38.378,33.477,36.121,30.252,30.974"
         id="path35"
         style="fill:#0b3768;fill-opacity:1" /></g><g
       id="g37"
       style="fill:#0b3768;fill-opacity:1"><defs
         id="defs39"><rect
           id="SVGID_7_"
           x="0"
           y="-262.239"
           width="379.802"
           height="386.547" /></defs><clipPath
         id="SVGID_8_"><use
           xlink:href="#SVGID_7_"
           overflow="visible"
           id="use43" /></clipPath><path
         clip-path="url(#SVGID_8_)"
         fill="#2FABE1"
         d="M71.454,64.129l9.335-8.691l-0.966-0.966    c-3.222,2.247-4.825,2.247-7.726-0.969l-5.472-5.791l9.013-8.047c0.963-1.288,1.609-0.972,2.572,0l4.831,5.472    c4.182,4.182,4.497,5.791,1.609,9.651l0.972,1.293l5.47-5.478L71.457,29.362l-0.966,0.649c2.253,2.566,2.897,3.86-0.325,6.757    L53.113,52.863c-3.547,3.219-4.507,3.219-7.404,0.319l-0.644,0.644l10.297,11.272l0.972-0.649c-2.578-2.9-2.897-4.179,0-7.076    l8.691-8.05l5.469,5.797c2.575,3.219,3.219,4.506,0.322,8.041L71.454,64.129z"
         id="path45"
         style="fill:#0b3768;fill-opacity:1" /></g><g
       id="g47"
       style="fill:#0b3768;fill-opacity:1"><defs
         id="defs49"><rect
           id="SVGID_9_"
           x="0"
           y="-262.239"
           width="379.802"
           height="386.547" /></defs><clipPath
         id="SVGID_10_"><use
           xlink:href="#SVGID_9_"
           overflow="visible"
           id="use53" /></clipPath><path
         clip-path="url(#SVGID_10_)"
         fill="#2FABE1"
         d="M84.008,89.871l13.838,8.366l0.647-0.644    c-3.541-2.25-4.185-3.538-1.935-7.072l12.872-20.602c2.257-3.544,3.544-3.216,7.085-1.294l0.644-0.962l-13.841-8.373l-0.644,0.65    c3.862,2.575,4.19,3.547,1.931,7.072L91.728,87.615c-1.926,3.225-3.213,3.55-7.073,1.287L84.008,89.871z"
         id="path55"
         style="fill:#0b3768;fill-opacity:1" /></g><g
       id="g57"
       style="fill:#0b3768;fill-opacity:1"><defs
         id="defs59"><rect
           id="SVGID_11_"
           x="0"
           y="-262.239"
           width="379.802"
           height="386.547" /></defs><clipPath
         id="SVGID_12_"><use
           xlink:href="#SVGID_11_"
           overflow="visible"
           id="use63" /></clipPath><path
         clip-path="url(#SVGID_12_)"
         fill="#2FABE1"
         d="M140.977,77.961l-1.288-0.321c-0.324,0.321-0.968,1.618-2.574,0.969    c-0.966-0.645-2.895-3.538-6.113-4.829c-4.51-1.925-10.304-1.287-12.882,4.51c-1.929,4.825,0.325,8.366,3.544,13.197    c5.473,7.404,5.473,9.651,4.185,12.229c-0.963,2.899-4.501,4.831-8.366,2.899c-6.757-2.899-6.435-10.622-6.435-13.188    l-0.972-0.649l-3.21,11.267l0.963,0.641c0.644-0.969,1.287-1.612,2.575-0.969c1.287,0.644,2.899,3.216,6.756,5.153    c7.085,3.219,12.555-0.322,14.488-4.51c4.504-10.298-11.588-18.673-8.372-26.07c1.616-2.894,4.831-3.544,7.082-2.256    c5.472,2.256,6.438,8.047,5.472,12.56l1.288,0.641L140.977,77.961z"
         id="path65"
         style="fill:#0b3768;fill-opacity:1" /></g><g
       id="g67"
       style="fill:#0b3768;fill-opacity:1"><defs
         id="defs69"><rect
           id="SVGID_13_"
           x="0"
           y="-262.239"
           width="379.802"
           height="386.547" /></defs><clipPath
         id="SVGID_14_"><use
           xlink:href="#SVGID_13_"
           overflow="visible"
           id="use73" /></clipPath><path
         clip-path="url(#SVGID_14_)"
         fill="#2FABE1"
         d="M174.773,122.71c-2.26-0.644-3.216-1.615-4.185-3.547l-8.369-15.453    c2.899,0,9.979,0,11.266-7.076c1.606-8.366-6.757-11.266-11.588-12.231l-14.807-2.897l-0.322,1.285    c3.859,0.962,4.507,1.612,3.541,5.475l-4.185,23.177c-0.969,4.178-1.288,5.146-5.794,4.503v0.963l14.801,2.9v-0.963    c-4.179-0.969-4.501-2.257-3.854-5.8l1.928-10.298l3.22,0.318l9.328,18.998l8.697,1.604L174.773,122.71z M156.428,87.299    c0-1.287,0.644-1.615,3.537-1.287c2.257,0.644,9.338,2.256,7.729,9.335c-1.293,7.403-9.335,6.119-13.841,5.147L156.428,87.299z"
         id="path75"
         style="fill:#0b3768;fill-opacity:1" /></g><g
       id="g77"
       style="fill:#0b3768;fill-opacity:1"><defs
         id="defs79"><rect
           id="SVGID_15_"
           x="0"
           y="-262.239"
           width="379.802"
           height="386.547" /></defs><clipPath
         id="SVGID_16_"><use
           xlink:href="#SVGID_15_"
           overflow="visible"
           id="use83" /></clipPath><path
         clip-path="url(#SVGID_16_)"
         fill="#2FABE1"
         d="M217.581,122.386c-2.254,0-3.216-0.645-4.828-4.51l-14.167-30.583h-0.966    l-10.944,26.724c-0.966,2.571-2.575,6.438-3.856,8.047c-0.972,0.969-1.932,0.969-2.906,0.969v1.278l10.947-0.315v-0.966    c-1.287,0-3.856,0-3.856-2.25c0-0.656,0.319-1.294,0.319-1.938l2.575-6.436l14.163-0.321l2.253,5.147    c0.325,0.644,1.288,2.571,1.288,3.55c0,1.925-1.932,1.925-3.863,1.925v0.969h13.842V122.386z M190.865,110.154l5.794-15.129    l6.76,14.804L190.865,110.154z"
         id="path85"
         style="fill:#0b3768;fill-opacity:1" /></g><g
       id="g87"
       style="fill:#0b3768;fill-opacity:1"><defs
         id="defs89"><rect
           id="SVGID_17_"
           x="0"
           y="-262.239"
           width="379.802"
           height="386.547" /></defs><clipPath
         id="SVGID_18_"><use
           xlink:href="#SVGID_17_"
           overflow="visible"
           id="use93" /></clipPath><path
         clip-path="url(#SVGID_18_)"
         fill="#2FABE1"
         d="M252.98,105.969l-1.287,0.322c-1.281,5.791-3.538,8.041-9.979,9.653    c-8.048,1.932-8.048,1.932-8.363-0.325l-3.219-12.872l8.047-1.932c4.507-1.278,5.476-0.641,7.082,3.538l1.287-0.319l-3.219-12.237    l-1.291,0.324c0.322,3.863,0.322,5.147-4.503,6.436l-8.048,1.938l-2.894-11.586c-0.644-1.931,0-2.256,1.281-2.256l7.085-1.932    c5.791-1.287,7.397-0.972,9.335,3.544l1.287-0.325l-1.931-7.406l-28.005,6.772l0.325,1.287c3.219-0.653,4.503-0.653,5.791,3.535    l5.794,23.495c0.969,3.868-0.319,4.831-3.541,5.797l0.322,0.963l28.642-7.076V105.969z"
         id="path95"
         style="fill:#0b3768;fill-opacity:1" /></g><g
       id="g97"
       style="fill:#0b3768;fill-opacity:1"><defs
         id="defs99"><rect
           id="SVGID_19_"
           x="0"
           y="-262.239"
           width="379.802"
           height="386.547" /></defs><clipPath
         id="SVGID_20_"><use
           xlink:href="#SVGID_19_"
           overflow="visible"
           id="use103" /></clipPath><path
         clip-path="url(#SVGID_20_)"
         fill="#2FABE1"
         d="M262.958,72.17l-13.519,7.082l0.321,0.966    c3.223-1.282,4.51-1.616,6.441,2.256l10.944,21.567c1.928,3.543,1.29,4.503-1.932,6.438l0.644,0.966l26.073-13.52l-1.938-9.657    l-1.281,0.645c0.322,8.05-2.575,9.65-9.979,13.516c-3.862,1.938-4.828,2.26-5.794,0.325l-11.588-22.854    c-1.932-3.862-0.969-4.822,2.256-6.76L262.958,72.17z"
         id="path105"
         style="fill:#0b3768;fill-opacity:1" /></g><g
       id="g107"
       style="fill:#0b3768;fill-opacity:1"><defs
         id="defs109"><rect
           id="SVGID_21_"
           x="0"
           y="-262.239"
           width="379.802"
           height="386.547" /></defs><clipPath
         id="SVGID_22_"><use
           xlink:href="#SVGID_21_"
           overflow="visible"
           id="use113" /></clipPath><path
         clip-path="url(#SVGID_22_)"
         fill="#2FABE1"
         d="M61.156-197.873c1.612-1.609,3.863-2.253,6.116,0    c2.25,1.935,5.15,4.51,5.791,7.719c1.935,7.731-3.544,13.532-3.544,13.532l4.188,8.357c0,0,2.253-6.104,2.897-10.297    c0.966-4.503,0.966-7.716-0.319-11.904c-1.287-4.503-2.578-8.054-5.797-10.951c-2.575-2.247-4.5-4.503-7.4-4.503    c-1.932,0.325-4.834,2.575-6.76,4.832l-7.726,8.05l-5.791-5.481c-0.969-0.965-1.288-1.281-2.256-1.931    c-0.972-0.638-2.575-0.966-2.575-0.966l1.287,7.088c0,0,0.969,0,1.288,0.319c3.544,1.616,8.363,6.435,9.007,6.757    c0.644,0.972,1.937,0,2.259-0.644L61.156-197.873z"
         id="path115"
         style="fill:#0b3768;fill-opacity:1" /></g><g
       id="g117"
       style="fill:#0b3768;fill-opacity:1"><defs
         id="defs119"><rect
           id="SVGID_23_"
           x="0"
           y="-262.239"
           width="379.802"
           height="386.547" /></defs><clipPath
         id="SVGID_24_"><use
           xlink:href="#SVGID_23_"
           overflow="visible"
           id="use123" /></clipPath><path
         clip-path="url(#SVGID_24_)"
         fill="#2FABE1"
         d="M74.351-214.608l10.944,0.644c0,0-0.644,7.079,0.325,11.266    c1.285,4.182,5.788,10.3,5.788,10.3l0.322,3.866l7.726-5.475l-1.288-6.757l-3.541,2.572c0,0-4.506-4.178-5.794-7.079    c-1.291-2.9-0.966-8.363-0.966-8.363s9.654,1.932,15.445,3.538c6.44,1.612,16.419,4.828,16.419,4.828l-0.969-6.76l-13.194-3.543    c0,0,0.646-9.329-1.287-13.198c-2.897-6.435-7.079-7.079-7.079-7.079l-0.966,8.05c0,0,3.854,2.25,5.147,4.503    c1.609,2.259,1.609,7.079,1.609,7.079s-9.979-2.25-16.095-3.219c-4.506-0.641-12.231-1.285-12.231-1.285L74.351-214.608z"
         id="path125"
         style="fill:#0b3768;fill-opacity:1" /></g><g
       id="g127"
       style="fill:#0b3768;fill-opacity:1"><defs
         id="defs129"><rect
           id="SVGID_25_"
           x="0"
           y="-262.239"
           width="379.802"
           height="386.547" /></defs><clipPath
         id="SVGID_26_"><use
           xlink:href="#SVGID_25_"
           overflow="visible"
           id="use133" /></clipPath><path
         clip-path="url(#SVGID_26_)"
         fill="#2FABE1"
         d="M130.676-242.61c2.897-0.969,4.504,0,5.791,1.288    c1.609,1.288,1.932,2.903,3.219,5.8l6.76,19.308l2.895-7.082l-6.432-18.026c-0.966-2.894-2.9-5.138-4.832-6.432    c-2.571-1.282-5.791-1.61-9.01-0.325l-7.081,2.569l-1.613-2.572c0,0-1.931,3.216-2.568,5.147c-0.645,2.256-1.294,5.8-1.294,5.476    L130.676-242.61z"
         id="path135"
         style="fill:#0b3768;fill-opacity:1" /></g><g
       id="g137"
       style="fill:#0b3768;fill-opacity:1"><defs
         id="defs139"><rect
           id="SVGID_27_"
           x="0"
           y="-262.239"
           width="379.802"
           height="386.547" /></defs><clipPath
         id="SVGID_28_"><use
           xlink:href="#SVGID_27_"
           overflow="visible"
           id="use143" /></clipPath><path
         clip-path="url(#SVGID_28_)"
         fill="#2FABE1"
         d="M156.428-258.376l-3.869,6.429c0,0,2.903,5.484,4.513,9.016    c2.894,5.791,6.116,14.491,6.76,15.772c1.287,2.9,1.609,5.788,5.794,5.145c6.435-0.641,10.298-4.504,14.157-9.651    c4.834-6.435,6.443-12.229,5.475-20.282c-0.318-4.172-2.899-10.292-2.899-10.292l-4.822,6.763c0,0,4.822,9.973,3.534,15.12    c-2.25,7.722-12.554,12.554-16.413,12.554c-0.641,0-0.963-0.638-0.963-1.288l-1.612-5.141c0,0,5.15-4.513,6.763-8.057    c1.609-3.538,2.247-6.116,1.929-9.979c-0.322-3.21-2.575-8.042-2.575-8.042l-4.185,5.476c0,0,3.544,7.713,1.612,11.579    c-0.972,2.572-4.507,5.797-4.507,5.797s-4.828-13.848-5.794-15.77C157.715-256.448,156.428-258.376,156.428-258.376"
         id="path145"
         style="fill:#0b3768;fill-opacity:1" /></g><g
       id="g147"
       style="fill:#0b3768;fill-opacity:1"><defs
         id="defs149"><rect
           id="SVGID_29_"
           x="0"
           y="-262.239"
           width="379.802"
           height="386.547" /></defs><clipPath
         id="SVGID_30_"><use
           xlink:href="#SVGID_29_"
           overflow="visible"
           id="use153" /></clipPath><path
         clip-path="url(#SVGID_30_)"
         fill="#2FABE1"
         d="M207.603-260.951l-5.15,5.138c0,0,3.862,2.581,5.794,4.197    c1.609,1.606,3.544,3.219,3.862,4.822c0.322,2.9-1.287,4.825-2.899,7.087c-1.929,2.25-4.504,6.11-4.504,6.11s1.288,0,2.253-0.972    c1.288-0.957,3.541-3.213,5.15-4.822c1.929-1.931,5.147-5.15,5.147-8.047c0.322-3.213-1.609-5.156-3.859-7.725    C211.465-257.414,207.603-260.951,207.603-260.951"
         id="path155"
         style="fill:#0b3768;fill-opacity:1" /></g><g
       id="g157"
       style="fill:#0b3768;fill-opacity:1"><defs
         id="defs159"><rect
           id="SVGID_31_"
           x="0"
           y="-262.239"
           width="379.802"
           height="386.547" /></defs><clipPath
         id="SVGID_32_"><use
           xlink:href="#SVGID_31_"
           overflow="visible"
           id="use163" /></clipPath><path
         clip-path="url(#SVGID_32_)"
         fill="#2FABE1"
         d="M250.405-240.037l-7.078,5.156l-9.976,29.292l6.119-4.509L250.405-240.037z     M245.261-247.119l22.852,10.304c2.253,0.963,3.543,2.25,1.931,5.794c-0.966,2.578-1.931,6.432-4.828,8.363    c-6.757,3.86-13.839,0.972-13.839,0.972l-6.44,6.432c0,0,6.44,0.325,10.629-0.319c4.5-0.972,7.397-1.937,11.26-4.512    c3.862-2.572,6.438-5.147,8.369-9.007c1.288-2.9,2.575-6.119,1.609-8.373c-0.644-1.931-3.862-3.859-6.76-5.147l-15.129-6.429    l0.65-2.906c0,0-3.544,0.644-5.473,1.612L245.261-247.119z"
         id="path165"
         style="fill:#0b3768;fill-opacity:1" /></g><g
       id="g167"
       style="fill:#0b3768;fill-opacity:1"><defs
         id="defs169"><rect
           id="SVGID_33_"
           x="0"
           y="-262.239"
           width="379.802"
           height="386.547" /></defs><clipPath
         id="SVGID_34_"><use
           xlink:href="#SVGID_33_"
           overflow="visible"
           id="use173" /></clipPath><path
         clip-path="url(#SVGID_34_)"
         fill="#2FABE1"
         d="M300.295-213.639c0.325-0.644,1.288-2.259,1.288-3.544    c0-1.928-0.319-2.894-0.963-4.503l-2.581-8.047l-7.076,1.929l3.216,7.406c0.645,1.288,0.972,1.932,0.972,3.216    c0,1.285-0.324,2.256-1.287,3.216c0,0-8.691,12.56-8.691,12.882l-7.081-5.15l-5.795,3.219l10.304,7.076l7.079-3.213    L300.295-213.639z"
         id="path175"
         style="fill:#0b3768;fill-opacity:1" /></g><g
       id="g177"
       style="fill:#0b3768;fill-opacity:1"><defs
         id="defs179"><rect
           id="SVGID_35_"
           x="0"
           y="-262.239"
           width="379.802"
           height="386.547" /></defs><clipPath
         id="SVGID_36_"><use
           xlink:href="#SVGID_35_"
           overflow="visible"
           id="use183" /></clipPath><path
         clip-path="url(#SVGID_36_)"
         fill="#2FABE1"
         d="M324.437-197.223c0.65,0.969,1.613,1.928,1.613,3.216    c0,0.972-2.257,2.9-2.578,3.21c-0.966,0.975-12.551,12.238-12.551,12.238l-11.904-12.238l-7.082,0.975l18.345,18.979l7.407-0.641    l-1.932-1.925c-0.65-0.644-0.325-2.256,0.318-2.9l11.589-11.591c0.966-0.638,4.503-3.854,4.503-6.113    c0.645-3.216-1.928-5.791-3.541-7.404l-6.438-6.763l1.932-2.894c0,0-5.142,0.319-6.113,0.644c-0.969,0-5.794,0.644-5.794,0.644    L324.437-197.223z"
         id="path185"
         style="fill:#0b3768;fill-opacity:1" /></g><g
       id="g187"
       style="fill:#0b3768;fill-opacity:1"><defs
         id="defs189"><rect
           id="SVGID_37_"
           x="0"
           y="-262.239"
           width="379.802"
           height="386.547" /></defs><clipPath
         id="SVGID_38_"><use
           xlink:href="#SVGID_37_"
           overflow="visible"
           id="use193" /></clipPath><path
         clip-path="url(#SVGID_38_)"
         fill="#2FABE1"
         d="M59.866-156.349c-1.928,3.863-2.891,4.507-6.753,2.575l-21.573-10.622    c-3.538-1.606-4.185-2.575-2.25-6.763l-0.972-0.641l-7.719,16.419c-5.472,10.941,0.962,15.123,2.575,16.089    c5.144,2.575,9.654-0.322,12.554-4.182v0.322c-0.644,2.256-1.613,7.085,3.856,9.657c7.729,3.86,12.551-4.516,14.485-8.691    l6.756-13.522L59.866-156.349z M39.587-154.095c-2.25,4.503-3.222,6.113-4.5,7.407c-1.931,2.25-4.831,3.859-8.694,1.928    c-6.76-3.222-4.185-9.335-2.572-12.557c1.288-2.897,1.932-3.541,3.538-2.897L39.587-154.095z M52.787-147.664    c0.972,0.325,1.609,0.65,0.972,1.622c-0.325,0.644-0.644,1.288-0.972,2.25c-1.612,3.541-5.147,8.047-10.947,5.147    c-5.788-2.572-3.213-8.691-2.569-9.979l2.25-4.503L52.787-147.664z"
         id="path195"
         style="fill:#0b3768;fill-opacity:1" /></g><g
       id="g197"
       style="fill:#0b3768;fill-opacity:1"><defs
         id="defs199"><rect
           id="SVGID_39_"
           x="0"
           y="-262.239"
           width="379.802"
           height="386.547" /></defs><clipPath
         id="SVGID_40_"><use
           xlink:href="#SVGID_39_"
           overflow="visible"
           id="use203" /></clipPath><path
         clip-path="url(#SVGID_40_)"
         fill="#2FABE1"
         d="M2.904-96.483c0.638-2.25,1.281-2.9,5.466-3.863l33.477-6.116v-0.962    L18.345-124.8c-1.931-1.288-5.472-3.863-6.435-5.479c-0.969-1.288-0.647-2.262-0.647-2.9l-0.966-0.322l-2.575,10.616l0.969,0.325    c0.322-1.287,0.966-3.866,3.219-3.222c0.644,0,1.288,0.331,1.931,0.972l5.472,3.854l-3.219,13.841l-5.472,0.978    c-0.641,0-2.575,0.319-3.544,0.319c-1.925-0.644-1.609-2.25-1.282-4.188l-0.972-0.322L1.607-96.802L2.904-96.483z M21.567-119.659    l12.878,9.335l-15.772,2.903L21.567-119.659z"
         id="path205"
         style="fill:#0b3768;fill-opacity:1" /></g></g><path
     fill="none"
     stroke="#221E1F"
     stroke-width="3"
     stroke-miterlimit="2.613"
     d="M60.51-98.736h263.927 M62.763-110.324h259.099   M67.276-121.912h250.405 M72.741-133.5h239.467 M79.823-145.082h225.628 M87.87-156.674h208.568 M99.137-168.256h186.032   M112.975-179.847h158.678 M132.608-191.432h119.734 M166.401-203.017h51.505"
     id="path207"
     style="fill:#0b3768;fill-opacity:1;stroke:#0b3768;stroke-opacity:1" /><g
     style="fill:#0b3768;fill-opacity:1"
     id="g211"><defs
       id="defs213"><rect
         height="386.547"
         width="379.802"
         y="-262.23901"
         x="0"
         id="SVGID_41_" /></defs><clipPath
       id="SVGID_42_"><use
         height="100%"
         width="100%"
         y="0"
         x="0"
         style="overflow:visible"
         id="use217"
         overflow="visible"
         xlink:href="#SVGID_41_" /></clipPath><path
       inkscape:connector-curvature="0"
       style="fill:#0b3768;fill-opacity:1"
       id="path219"
       d="m 296.439,-167.615 c 3.856,1.616 8.041,3.219 12.554,2.582 1.609,-0.65 2.897,-1.938 4.5,-1.613 3.863,0.644 7.401,3.86 11.589,2.894 2.256,0 2.899,2.253 4.506,3.216 3.859,0 9.657,-1.928 12.87,0.969 3.868,3.863 8.697,0 13.197,1.609 2.26,2.256 4.835,4.832 5.147,8.047 1.29,4.513 6.769,5.797 9.979,9.013 1.291,2.253 4.831,2.897 3.544,6.122 0,6.11 0.644,12.544 -0.966,18.979 0.641,5.147 -0.969,9.66 0.641,14.485 0.646,2.253 0.969,3.86 2.256,5.797 l 0.645,4.503 c 1.287,3.216 4.188,6.763 2.253,10.3 -2.253,0.966 -1.929,3.541 -1.604,5.153 2.575,2.566 1.604,6.11 2.251,9.007 -0.963,1.288 -0.647,3.863 -0.647,5.794 l 0.325,0.322 c 0,2.25 -1.609,4.503 -1.926,6.429 -1.618,3.863 -4.834,7.41 -4.834,11.591 -0.644,3.866 0.325,7.722 -3.219,11.266 l -1.282,1.288 c 0,0.962 -1.615,1.928 -1.931,2.894 -2.26,3.222 -4.835,7.406 -4.191,11.591 -0.644,2.569 -4.5,3.863 -4.828,6.444 -2.894,2.566 -5.469,6.11 -5.15,9.973 0.647,1.922 -0.962,2.566 -1.287,4.185 0.325,4.826 2.259,9.01 2.259,13.517 -2.259,2.581 -7.403,4.182 -8.69,8.05 0.966,7.076 -3.541,12.551 -8.691,17.054 -2.9,2.575 -7.403,1.932 -9.979,4.832 -1.612,4.825 -6.435,7.716 -10.301,9.979 -5.147,-0.969 -10.297,0.638 -13.844,4.503 -2.892,1.281 -6.757,0.322 -8.686,2.575 -2.578,1.606 -5.147,0 -7.723,1.281 -9.335,1.938 -15.772,-5.15 -24.464,-5.785 -7.725,0.313 -15.444,1.606 -22.526,0.966 -1.931,-0.966 -4.19,-2.575 -6.44,-1.609 -3.538,-2.9 -7.075,-6.763 -9.65,-10.623 -0.645,-0.644 -1.616,-0.322 -1.932,-1.613 -2.253,-1.288 -4.185,-3.219 -7.082,-2.9 -0.966,-0.644 -2.575,-0.322 -3.219,-1.288 -4.828,-0.966 -9.653,-1.931 -13.194,-6.113 -2.9,-2.256 -7.082,-1.928 -10.622,-2.256 -2.257,0 -5.15,-0.319 -7.076,-1.612 -2.259,-4.503 -6.766,-7.079 -9.016,-11.588 -0.641,0 -1.284,-0.644 -1.612,-1.278 -0.319,-0.972 -1.604,-1.938 -1.929,-2.581 -1.606,-1.932 -4.182,-1.288 -6.113,-2.894 -1.609,-0.322 -3.219,-1.294 -4.506,-2.582 -3.541,-1.612 -8.691,-1.288 -9.654,-6.116 -1.612,-0.959 -4.188,-2.575 -3.862,-4.832 0.966,-3.532 -1.612,-6.748 -3.541,-9.329 -2.9,-5.147 -8.047,-8.691 -11.266,-13.195 0,-2.253 0.965,-4.185 0.965,-6.438 l -0.644,-0.644 c 0.325,-1.931 0,-3.859 -0.321,-5.472 0.646,-1.288 -0.322,-2.894 -0.966,-4.506 -0.319,-3.541 -1.612,-6.116 -2.575,-9.657 -2.257,-4.176 -5.153,-8.366 -6.757,-12.226 -0.972,-3.859 1.925,-6.76 2.569,-9.979 0.644,-1.609 2.581,-1.928 3.54,-2.897 2.906,-0.972 6.438,0.319 8.691,-2.253 2.9,-2.9 6.763,-4.188 10.622,-3.866 1.932,-0.965 4.188,-3.216 5.476,-5.147 0.322,-2.894 1.932,-5.794 1.609,-8.691 1.288,-2.897 1.288,-6.438 2.25,-9.334 1.616,-2.897 0.325,-6.763 1.616,-9.651 -0.325,-1.619 0.644,-2.575 0.965,-3.869 -0.321,-3.544 0.645,-6.76 3.22,-8.685 -0.322,-2.572 2.575,-3.544 3.862,-5.475 1.606,-3.86 5.15,-6.76 9.65,-6.76 2.254,-2.582 6.122,-2.582 8.688,-5.15 2.9,-1.609 5.153,-5.472 9.013,-5.147 1.932,-0.641 4.507,-0.969 6.116,-2.9 l 5.794,0 c 2.256,-1.288 5.15,0 7.406,0.322 2.572,1.938 4.826,-2.572 8.045,-0.644 1.931,0 3.219,-1.928 5.469,-0.644 3.863,-0.322 7.079,-2.572 10.944,-1.928 4.513,-0.322 6.119,-7.082 10.947,-7.082 5.15,0.322 8.372,-4.179 11.589,-7.404 3.219,0.969 8.69,1.932 11.909,0 2.897,-0.322 4.829,-3.543 7.403,-4.188 7.058,1.95 14.468,2.912 21.872,2.912"
       clip-path="url(#SVGID_42_)" /></g><g
     style="fill:#ffffff;fill-opacity:1"
     id="g221"><defs
       id="defs223"><rect
         height="386.547"
         width="379.802"
         y="-262.23901"
         x="0"
         id="SVGID_43_" /></defs><clipPath
       id="SVGID_44_"><use
         height="100%"
         width="100%"
         y="0"
         x="0"
         style="overflow:visible"
         id="use227"
         overflow="visible"
         xlink:href="#SVGID_43_" /></clipPath><path
       inkscape:connector-curvature="0"
       style="fill:#ffffff;fill-opacity:1"
       id="path229"
       d="m 291.607,-131.885 c 1.285,2.9 -0.972,5.791 -2.574,8.047 -0.642,5.788 0,11.26 0,17.376 -0.966,1.288 0,3.219 0,4.832 -0.322,4.829 0.321,9.654 -0.322,14.485 0.644,0.965 1.925,0.644 2.575,1.285 4.503,-0.641 7.078,-5.791 9.007,-9.657 1.615,-4.503 2.575,-8.694 1.615,-13.516 0.319,-2.575 0.645,-5.8 0.319,-8.691 0,-1.931 -0.969,-3.219 -0.969,-5.469 -0.966,-1.288 -2.569,-2.256 -3.213,-4.185 -0.322,-1.61 -1.609,-3.869 0.321,-5.479 1.929,-2.25 5.147,-0.644 7.726,-1.931 2.897,-0.644 5.794,0 8.369,1.615 l 1.606,2.569 c -0.318,3.225 -1.606,5.794 -3.862,8.053 0.325,5.794 2.259,11.26 0.972,17.376 0.963,3.863 -0.325,7.726 -0.644,11.585 -0.972,6.122 -5.479,10.622 -8.372,15.779 -3.86,5.466 -10.298,4.178 -15.448,6.759 l -0.322,0.644 c 1.285,4.829 -1.612,9.979 1.926,13.841 8.05,0.322 15.775,-3.863 21.245,-9.657 5.472,-3.863 7.078,-10.3 10.3,-15.457 0,-3.216 2.257,-5.466 1.932,-8.363 1.609,-1.609 0.322,-4.191 1.609,-5.794 -0.966,-3.541 1.288,-7.403 0.647,-10.622 1.284,-3.216 -0.963,-6.754 0,-10.294 -0.963,-2.582 -1.613,-6.128 -4.188,-7.726 -0.968,-0.969 -0.644,-2.572 -0.321,-3.547 1.287,-1.925 2.253,-3.535 4.185,-4.829 3.862,-1.288 9.01,-1.931 12.231,0.322 1.613,0 2.9,1.618 4.507,1.931 0.644,1.938 3.219,3.225 1.932,5.478 -0.645,2.244 -2.257,3.213 -4.185,4.5 -1.932,4.513 -0.645,9.985 -1.932,14.482 0.966,6.119 -1.932,11.266 -1.291,17.063 -0.641,3.538 -1.284,7.723 -2.572,11.267 -2.256,4.503 -2.899,9.65 -5.472,14.157 -3.544,5.479 -6.76,11.588 -13.191,14.485 -2.903,1.609 -6.119,2.253 -8.697,3.538 -2.569,0.331 -4.5,1.619 -7.4,1.288 -1.932,1.613 -4.831,0.328 -7.079,1.285 -1.287,0.325 -2.581,0.644 -3.219,1.938 -0.644,2.897 -0.321,6.757 -0.644,9.654 0.966,0.969 1.281,2.575 2.575,2.575 1.932,0 3.219,1.288 4.822,0.322 7.088,-0.644 12.238,-4.513 18.673,-6.441 2.9,-2.572 6.112,-3.86 9.01,-6.435 4.828,-2.569 8.366,-6.435 11.588,-10.951 0.969,-2.894 3.863,-4.494 4.507,-7.391 1.932,-1.619 -0.322,-2.9 0.969,-4.519 0.638,-0.957 0.638,-2.241 1.609,-2.885 -0.325,-0.65 0.969,-0.972 0.969,-1.612 1.609,-3.869 5.473,-7.404 3.541,-12.232 0.966,-0.322 0.315,-1.613 0.644,-2.256 1.609,-2.897 2.891,-6.76 2.253,-10.304 -0.321,-2.572 -0.644,-5.788 0.325,-8.363 0.315,-1.288 0.966,-2.897 1.284,-4.188 0,0 0.322,0 0.322,0.322 -0.644,-0.965 0.644,-1.284 0.966,-1.928 0,-3.543 1.932,-6.756 0.969,-9.979 -0.969,-1.931 -1.616,-3.863 -3.226,-5.469 0,-0.972 0,-1.931 -0.637,-2.9 0,-2.572 2.25,-5.153 4.828,-6.119 3.862,-0.644 7.725,-0.962 10.622,0.325 2.9,-0.325 4.501,3.219 5.788,4.831 -0.322,3.535 -3.219,6.11 -4.504,9.329 0,4.178 -1.931,8.047 -0.962,12.226 -1.612,4.834 -1.932,10.623 -2.257,15.785 -1.931,4.816 -1.29,10.616 -3.547,15.12 -0.963,5.794 -2.25,11.585 -4.5,17.054 -0.966,0.322 -1.288,1.293 -1.288,2.253 -1.935,3.219 -3.547,6.444 -5.472,9.65 -3.541,3.547 -6.438,8.375 -10.944,10.951 -0.969,1.931 -3.219,2.894 -4.831,4.832 -4.829,5.791 -11.589,7.078 -17.695,10.3 -2.903,2.256 -6.119,4.188 -9.979,4.188 -3.869,0 -8.051,1.285 -11.91,1.285 l -0.644,0.963 c -0.325,5.472 0,11.594 1.606,16.738 0,3.541 3.222,6.438 4.831,9.657 1.935,1.928 3.544,3.859 5.147,6.11 5.791,4.513 11.91,8.372 19.632,9.016 2.575,1.612 6.438,0.644 8.366,3.543 2.257,1.61 0.969,4.182 0.645,6.435 -0.322,1.288 -1.288,2.256 -2.254,2.256 -5.466,0.644 -10.301,-0.65 -15.77,-0.65 -2.894,0.65 -5.147,-0.319 -7.726,-0.319 -3.856,-1.616 -8.363,-1.932 -12.231,-2.259 -6.113,1.288 -13.195,0.972 -19.311,1.615 -7.076,-2.259 -15.129,-0.325 -21.886,0 -7.723,-2.259 -15.448,-1.615 -23.82,-0.972 -2.569,-0.319 -5.788,0.325 -7.4,-1.931 0.644,-2.569 0.644,-5.788 3.856,-7.076 4.513,-1.288 9.335,-0.972 13.198,-3.854 0.969,-0.322 2.259,-0.322 3.225,-1.293 9.335,0 16.41,-5.8 23.492,-11.267 2.259,-2.575 3.862,-5.8 4.188,-9.013 1.609,-1.609 1.284,-3.857 2.253,-5.472 0.322,-1.288 0.322,-2.25 0,-3.857 0.322,-2.253 0,-4.506 1.288,-6.766 -0.325,-1.606 -1.932,-2.569 -3.219,-3.535 -1.288,-0.644 -2.897,0 -4.507,-0.322 -4.504,-1.932 -10.298,-0.966 -14.157,-3.863 -2.259,-0.322 -3.869,-1.932 -5.8,-2.575 -1.926,-0.325 -2.897,-2.575 -4.822,-3.541 -3.869,-0.965 -6.444,-4.5 -9.979,-6.438 -1.616,-3.216 -5.157,-5.785 -7.726,-8.366 -2.897,-0.969 -4.185,-3.544 -5.15,-5.794 -2.575,-4.185 -5.473,-8.05 -8.366,-11.91 -1.612,-7.716 -5.15,-14.169 -6.116,-22.526 -1.931,-2.259 -0.325,-6.116 -2.253,-8.36 -0.644,-6.769 -2.9,-13.209 -2.9,-19.963 0,-3.225 -1.609,-5.797 -1.932,-8.691 0.645,-4.182 -6.115,-5.15 -3.859,-9.973 1.609,-2.262 2.254,-5.475 5.473,-5.8 4.828,-0.962 11.266,-1.284 15.126,2.26 1.281,1.281 1.281,3.219 0.965,5.141 -2.571,2.262 -2.253,5.481 -2.896,8.372 0,11.588 2.896,22.208 5.472,33.474 4.188,6.441 3.544,15.126 9.335,20.923 1.932,3.219 4.832,5.475 6.119,9.007 0.963,0.649 0.963,2.572 1.932,2.572 0.641,2.259 1.928,3.553 3.216,5.479 5.147,2.572 9.007,7.082 14.485,9.335 1.928,2.572 5.472,1.612 7.4,3.856 3.54,1.616 6.76,4.834 10.622,4.513 1.285,-0.322 4.185,0.644 4.828,-1.288 -0.965,-4.51 1.932,-9.335 -1.931,-12.879 -3.22,-3.86 -8.691,-1.288 -12.554,-3.21 -5.467,-2.256 -9.651,-7.084 -14.805,-9.979 -3.216,-3.219 -7.722,-6.119 -9.01,-10.307 -2.575,-3.856 -4.828,-7.719 -7.082,-11.904 -0.644,-1.609 0.319,-3.547 -0.644,-4.834 0.644,-7.719 -3.547,-13.835 -3.216,-20.92 -0.328,-3.541 -1.29,-6.429 0,-9.66 -0.646,-1.919 0.966,-4.495 -0.646,-6.432 -1.609,-0.638 -2.897,-1.288 -4.185,-2.569 -0.966,-3.86 0.969,-7.079 3.219,-9.66 3.213,-0.319 7.403,0.322 10.616,-0.963 1.294,1.282 3.863,1.282 4.507,2.9 1.938,2.253 3.544,5.142 1.938,8.035 -0.972,1.622 -2.9,2.26 -2.26,3.875 -0.962,2.897 -0.641,6.754 -1.612,9.651 1.612,3.859 0.65,8.369 1.612,12.875 0,2.894 1.288,5.794 2.26,8.694 -0.644,0.644 0.321,1.609 0,2.894 1.287,0.644 0.962,2.256 1.606,3.216 0.644,0.65 0.966,1.615 0.966,2.259 0.969,1.931 2.578,3.859 3.222,5.791 0.963,0.322 0.641,1.612 1.287,2.578 1.932,1.931 4.504,3.863 6.764,5.472 3.856,1.278 5.791,5.794 9.328,6.753 1.932,1.288 4.504,1.938 6.76,2.582 1.609,0 2.575,-1.294 3.863,-1.616 -0.325,-3.219 -0.645,-6.757 0.321,-9.979 -0.321,-2.25 -1.932,-3.863 -3.541,-4.832 -1.931,-1.281 -4.506,-1.281 -6.763,-1.925 -2.253,-3.859 -8.688,-4.185 -8.688,-9.335 -0.641,-1.612 -1.281,-3.216 -2.254,-4.503 -0.644,-6.119 -2.899,-12.235 -2.899,-18.348 -0.963,-4.506 -0.322,-7.41 0.649,-11.588 -0.649,-2.256 0,-4.825 -2.259,-6.435 l 0.321,0 c -1.606,-0.644 -2.253,-2.25 -2.575,-3.538 0,-2.575 1.288,-4.194 2.903,-5.797 2.9,-1.931 7.403,-0.966 10.623,-1.288 0.962,1.288 2.894,0.644 3.537,2.256 -0.644,1.925 1.609,3.544 0.641,5.794 0.647,1.285 -0.321,2.572 -0.321,3.857 -4.829,1.288 -1.61,6.435 -2.897,9.66 -0.966,5.788 0,10.935 1.287,16.41 2.576,4.191 2.897,9.657 8.048,11.907 0.644,0.322 1.288,0.644 2.253,0.644 3.544,-5.791 0.969,-14.16 1.613,-20.923 0.644,-5.472 0.965,-9.329 0.321,-14.476 l 0.644,-0.969 c -0.965,-3.544 -6.435,-6.116 -4.185,-10.622 1.609,-2.575 4.504,-3.219 7.726,-3.544 4.493,-0.64 8.681,0.329 11.897,3.548"
       clip-path="url(#SVGID_44_)" /></g></svg>